<?xml version="1.0" standalone="no"?>
<!DOCTYPE svg PUBLIC "-//W3C//DTD SVG 20010904//EN"
 "http://www.w3.org/TR/2001/REC-SVG-20010904/DTD/svg10.dtd">
<svg version="1.0" xmlns="http://www.w3.org/2000/svg"
 width="676.000000pt" height="676.000000pt" viewBox="0 0 676.000000 676.000000"
 preserveAspectRatio="xMidYMid meet">
<metadata>
Created by potrace 1.14, written by Peter Selinger 2001-2017
</metadata>
<g transform="translate(0.000000,676.000000) scale(0.100000,-0.100000)"
fill="#000000" stroke="none">
<path d="M3361 6743 c-9 -17 -50 -169 -106 -390 l-25 -102 56 -86 c62 -96 62
-118 0 -89 -46 22 -82 12 -112 -33 -19 -29 -25 -72 -15 -125 0 -4 15 -14 31
-23 26 -13 30 -14 30 -1 0 8 10 27 23 41 19 22 24 24 39 13 10 -7 20 -30 23
-50 6 -35 4 -38 -19 -38 -27 0 -34 -17 -28 -62 3 -16 12 -30 23 -33 10 -4 19
-13 19 -21 0 -28 -26 -42 -71 -41 l-44 2 -1 -39 c-1 -51 23 -76 75 -76 22 0
51 4 65 10 37 14 32 -2 -14 -47 l-40 -39 20 -21 c11 -12 20 -29 20 -37 0 -8 4
-17 9 -21 5 -3 9 -18 9 -34 -1 -15 3 -34 7 -41 18 -30 14 -86 -16 -211 -29
-124 -66 -284 -74 -319 -2 -8 -14 -62 -28 -120 -25 -101 -65 -269 -72 -300 -8
-35 -25 -110 -41 -175 -9 -38 -18 -77 -19 -85 -1 -8 -8 -35 -15 -60 -7 -25
-13 -53 -12 -62 2 -34 -16 -17 -46 45 -110 229 -345 697 -349 697 -2 0 -1 -10
2 -21 4 -12 8 -27 10 -33 1 -6 4 -18 7 -26 3 -8 29 -94 58 -190 29 -96 61
-202 71 -235 11 -33 21 -69 23 -80 2 -11 10 -33 16 -50 7 -16 14 -41 16 -55 3
-14 14 -49 24 -78 11 -29 20 -55 20 -57 0 -10 -16 -5 -35 10 -22 17 -107 74
-133 90 -32 19 -77 50 -82 55 -3 3 -106 74 -230 157 -263 176 -403 271 -598
403 -56 39 -107 70 -112 70 -6 0 -10 5 -10 12 0 6 -3 8 -7 5 -3 -4 19 -45 50
-92 32 -47 57 -87 57 -90 0 -3 5 -11 10 -18 21 -24 150 -228 150 -237 0 -4 3
-10 8 -12 4 -1 34 -46 67 -98 75 -120 141 -222 152 -235 4 -5 14 -21 20 -35
13 -26 205 -326 221 -346 5 -5 15 -21 22 -35 7 -13 18 -27 24 -31 43 -28 -52
-1 -400 116 -259 87 -402 131 -409 124 -7 -6 -7 -8 0 -6 9 3 124 -50 135 -63
3 -3 55 -32 115 -64 61 -32 142 -75 180 -95 39 -20 106 -56 150 -80 44 -24
109 -59 145 -77 72 -39 87 -49 68 -50 -12 -1 -62 -9 -111 -19 -12 -2 -37 -6
-57 -9 -20 -3 -47 -8 -60 -10 -14 -3 -38 -7 -55 -10 -16 -3 -41 -7 -55 -10
-14 -3 -41 -7 -60 -10 -19 -3 -42 -8 -50 -10 -8 -2 -33 -7 -55 -10 -23 -3 -52
-8 -65 -10 -14 -3 -45 -8 -69 -11 -24 -2 -47 -6 -51 -9 -4 -3 -32 -7 -61 -11
-30 -3 -57 -8 -61 -11 -4 -2 -24 -6 -45 -8 -21 -3 -49 -7 -63 -10 -26 -6 -49
-10 -110 -19 -66 -11 -248 -43 -339 -61 l-64 -12 -10 27 c-6 15 -25 37 -44 50
-43 30 -104 24 -133 -13 -11 -14 -35 -29 -53 -33 -17 -4 -34 -8 -37 -9 -3 -1
-18 -5 -35 -9 -72 -18 -72 -19 0 -42 39 -12 78 -23 87 -23 9 -1 23 -9 30 -19
43 -59 151 -47 178 19 10 24 15 26 43 19 115 -27 305 -72 320 -75 10 -2 26 -6
35 -9 9 -3 28 -7 42 -10 27 -5 222 -51 280 -66 19 -5 87 -21 150 -35 63 -14
140 -32 170 -40 30 -8 66 -16 80 -18 14 -3 45 -10 70 -17 25 -7 54 -14 65 -16
11 -2 44 -10 73 -17 l53 -12 -73 -39 c-40 -21 -104 -55 -143 -76 -38 -21 -106
-57 -150 -80 -44 -24 -102 -55 -130 -70 -27 -15 -75 -40 -105 -56 -30 -16 -58
-33 -61 -37 -3 -5 -8 -8 -10 -7 -8 4 -59 -23 -59 -31 0 -5 91 23 203 62 111
38 209 72 217 74 33 8 428 142 439 149 13 9 37 -4 24 -13 -5 -3 -39 -49 -74
-101 -36 -52 -101 -147 -144 -210 -44 -63 -83 -116 -87 -118 -4 -2 -8 -8 -8
-13 0 -8 -58 -97 -70 -109 -3 -3 -24 -32 -46 -65 -23 -33 -122 -177 -220 -320
-216 -314 -220 -320 -203 -309 8 4 19 12 24 17 23 19 598 397 606 397 4 0 9 3
11 8 2 4 26 22 53 40 28 18 57 37 65 42 160 106 227 150 235 157 6 5 35 24 65
43 30 19 57 37 60 40 10 10 70 41 70 36 0 -6 -54 -174 -122 -381 -22 -66 -41
-124 -42 -130 -2 -8 -14 -46 -42 -135 -3 -8 -5 -16 -5 -18 1 -1 -5 -18 -13
-37 -8 -19 -12 -35 -9 -35 3 0 1 -6 -4 -12 -13 -17 -23 -58 -15 -58 4 0 19 24
33 53 23 47 206 405 231 452 21 37 27 50 89 174 63 124 71 131 82 66 3 -16 8
-39 10 -50 3 -11 15 -67 27 -125 12 -58 24 -113 26 -122 2 -10 6 -28 9 -41 2
-12 9 -42 15 -67 5 -25 12 -56 14 -70 7 -40 66 -312 76 -350 5 -19 11 -52 14
-74 4 -21 8 -42 11 -46 3 -4 7 -23 10 -41 5 -39 12 -73 19 -97 3 -9 8 -30 11
-47 3 -16 11 -55 18 -85 15 -67 16 -96 1 -93 -7 1 -23 -8 -37 -21 -19 -18 -24
-30 -20 -47 6 -23 6 -23 -18 -9 -34 22 -67 13 -90 -23 -23 -38 -24 -73 -5 -93
17 -16 72 -19 81 -4 4 6 11 8 16 5 17 -11 9 -23 -21 -29 -26 -5 -30 -10 -30
-40 0 -26 5 -36 20 -41 11 -3 25 -3 32 1 8 5 9 2 5 -10 -4 -10 -7 -24 -7 -32
0 -16 -35 -54 -51 -54 -5 0 -8 4 -5 9 7 11 -22 36 -31 28 -3 -4 -12 -2 -19 4
-36 30 -73 -21 -70 -97 2 -50 17 -71 62 -83 44 -12 79 -6 116 21 16 11 32 17
36 14 3 -4 2 -10 -4 -14 -5 -4 -20 -22 -33 -40 l-23 -33 42 -72 c44 -74 74
-106 100 -107 15 0 60 57 60 77 0 6 4 13 8 15 4 1 18 21 30 42 l23 39 -30 49
c-17 27 -31 51 -31 54 0 9 45 -19 53 -32 11 -19 90 -18 127 1 20 10 31 25 35
48 11 55 -11 127 -39 127 -41 0 -75 -14 -80 -34 -6 -20 -8 -19 -35 12 -30 35
-35 66 -10 68 39 3 40 4 37 42 -3 32 -7 37 -30 40 -27 3 -35 12 -22 24 3 3 21
1 39 -5 29 -9 38 -7 55 8 27 25 25 67 -5 103 -24 29 -39 32 -85 21 -8 -2 -16
3 -16 11 -1 8 -2 20 -3 26 0 6 -14 17 -31 24 -33 14 -33 8 -4 143 8 39 17 79
18 87 11 52 19 97 22 110 1 8 5 26 8 40 4 14 8 36 11 50 10 52 15 76 22 105 3
17 7 37 8 45 2 13 84 414 101 490 3 14 7 36 10 50 3 14 14 67 25 119 10 52 19
97 20 100 0 3 10 -14 23 -39 12 -25 53 -103 91 -175 128 -241 184 -350 237
-452 29 -57 56 -103 59 -103 4 0 -57 192 -136 428 -78 235 -141 428 -140 430
2 2 51 -30 109 -70 58 -40 114 -77 124 -83 9 -5 19 -12 22 -15 3 -3 32 -23 65
-45 33 -22 62 -42 65 -45 3 -3 61 -43 130 -89 69 -47 127 -89 128 -93 2 -4 7
-8 12 -8 8 0 129 -81 412 -277 59 -40 115 -76 125 -79 11 -4 14 -2 7 3 -8 6
-279 430 -399 624 -103 167 -160 254 -167 257 -4 2 -8 7 -8 12 0 8 -60 110
-70 120 -14 13 -121 193 -117 196 3 3 22 -2 43 -10 45 -17 534 -177 549 -180
6 -1 15 -4 20 -7 9 -5 22 -10 80 -25 6 -1 36 -12 68 -23 60 -21 81 -13 25 10
-18 7 -35 15 -38 18 -3 4 -68 38 -145 77 -77 40 -189 97 -249 129 -61 31 -144
74 -185 95 -42 22 -85 46 -96 54 -20 15 -20 15 5 16 14 1 32 3 40 6 17 4 261
52 305 60 17 2 38 7 48 10 10 3 30 7 45 9 15 2 47 8 72 14 25 5 59 12 75 15
17 3 111 22 210 41 99 20 191 38 205 41 14 2 45 9 70 14 25 5 72 14 105 20 67
13 81 15 171 34 59 13 64 12 69 -5 3 -10 19 -29 35 -43 37 -30 99 -30 133 2
12 11 61 32 110 47 48 15 87 29 87 31 0 2 -42 16 -90 29 -57 15 -86 28 -112
50 -27 23 -39 26 -72 22 -42 -6 -96 -52 -96 -81 0 -9 -4 -16 -8 -16 -8 0 -85
14 -142 25 -14 3 -38 8 -55 11 -90 16 -346 66 -380 74 -22 6 -56 12 -75 15
-19 3 -66 12 -105 20 -38 8 -83 16 -100 19 -16 3 -41 8 -55 11 -14 2 -36 7
-50 9 -14 2 -61 12 -105 21 -44 9 -89 19 -100 20 -28 5 -75 14 -105 21 -14 3
-41 8 -60 10 -19 2 -57 10 -84 17 l-50 13 35 14 c19 7 41 19 49 25 8 6 31 18
50 25 19 8 51 24 70 35 19 12 37 22 40 22 12 1 185 88 188 95 2 4 8 8 13 8 14
0 283 132 290 143 3 5 9 9 12 9 18 0 47 11 47 18 0 8 -51 -4 -150 -36 -30 -10
-58 -19 -62 -20 -5 -1 -9 -2 -10 -4 -2 -1 -10 -3 -18 -5 -8 -1 -91 -26 -185
-55 -93 -29 -213 -65 -265 -80 -52 -16 -104 -32 -114 -36 -22 -8 -21 -6 29 64
16 24 35 51 40 60 6 10 165 248 353 531 189 282 338 509 330 505 -12 -8 -154
-101 -188 -124 -57 -38 -154 -100 -157 -100 -3 0 -33 -20 -67 -45 -35 -25 -67
-45 -70 -45 -4 0 -12 -5 -19 -11 -11 -10 -122 -83 -408 -268 -63 -41 -152
-100 -199 -131 -47 -31 -90 -59 -97 -63 -7 -4 46 165 118 375 72 211 134 397
139 413 4 17 13 42 19 58 21 53 -6 26 -40 -40 -43 -85 -149 -283 -206 -387
-24 -43 -43 -82 -43 -87 0 -5 -4 -9 -10 -9 -5 0 -10 -8 -10 -18 0 -10 -4 -22
-9 -28 -5 -5 -25 -40 -45 -79 -20 -38 -37 -67 -37 -65 -1 3 -3 14 -5 25 -2 11
-12 61 -23 110 -21 92 -28 130 -36 177 -2 15 -15 84 -29 152 -14 69 -28 140
-31 158 -3 18 -8 41 -11 51 -3 10 -8 32 -11 50 -8 53 -9 60 -21 117 -6 30 -14
66 -16 80 -3 14 -10 50 -16 80 -6 30 -13 66 -16 80 -2 14 -7 36 -9 50 -3 14
-7 36 -10 50 -3 14 -9 48 -15 75 -7 38 -7 63 4 102 8 28 11 54 9 57 -3 3 0 12
7 21 7 8 9 15 6 15 -4 0 2 13 13 29 22 31 28 61 12 61 -6 0 -21 11 -35 24 -30
27 -35 51 -8 38 29 -15 106 -14 126 1 13 10 19 27 20 58 l1 44 -40 -2 c-22 -2
-49 4 -63 13 l-24 16 25 26 c14 15 26 36 27 47 5 45 0 55 -26 55 -25 0 -26 2
-19 38 4 20 11 42 16 48 16 19 47 4 58 -27 19 -56 75 -25 76 42 3 97 -55 146
-133 113 -61 -25 -60 -3 2 93 39 60 55 94 52 108 -8 29 -87 327 -91 345 -34
136 -51 165 -74 123z"/>
</g>
</svg>
