<svg width="24" height="24" viewBox="0 0 24 24" fill="none" xmlns="http://www.w3.org/2000/svg">
<path d="M19.69 9.10996L6.79999 2.57996C6.30615 2.29945 5.74794 2.15198 5.17999 2.15198C4.61205 2.15198 4.05383 2.29945 3.55999 2.57996C3.07721 2.90907 2.68983 3.35977 2.43699 3.88652C2.18415 4.41327 2.0748 4.99742 2.11999 5.57996V18.56C2.07685 19.1423 2.18711 19.7257 2.43978 20.2521C2.69244 20.7785 3.07868 21.2294 3.55999 21.56C4.00629 21.8289 4.51899 21.9675 5.03999 21.96C5.65375 21.9495 6.25652 21.7954 6.79999 21.51L19.69 15C21.6 14 21.88 12.76 21.88 12.08C21.88 11.4 21.6 10.08 19.69 9.10996ZM18.78 13.17L5.89999 19.7C5.71004 19.8257 5.49192 19.9025 5.26508 19.9234C5.03824 19.9444 4.80975 19.9088 4.59999 19.82C4.42254 19.6656 4.28589 19.4699 4.20217 19.2501C4.11844 19.0303 4.09021 18.7933 4.11999 18.56V5.49996C4.09021 5.26666 4.11844 5.02962 4.20217 4.80984C4.28589 4.59005 4.42254 4.39431 4.59999 4.23996C4.7225 4.17158 4.85974 4.13384 4.99999 4.12996C5.30142 4.14201 5.59588 4.22418 5.85999 4.36996L18.78 10.9C19.46 11.24 19.88 11.68 19.88 12.03C19.88 12.38 19.46 12.82 18.78 13.17Z" fill="#FFB703"/>
</svg>
