<?xml version="1.0" standalone="no"?>
<!DOCTYPE svg PUBLIC "-//W3C//DTD SVG 20010904//EN"
 "http://www.w3.org/TR/2001/REC-SVG-20010904/DTD/svg10.dtd">
<svg version="1.0" xmlns="http://www.w3.org/2000/svg"
 width="475.000000pt" height="475.000000pt" viewBox="0 0 475.000000 475.000000"
 preserveAspectRatio="xMidYMid meet">
<metadata>
Created by potrace 1.14, written by Peter Selinger 2001-2017
</metadata>
<g transform="translate(0.000000,475.000000) scale(0.100000,-0.100000)"
fill="#000000" stroke="none">
<path d="M2323 4728 c-15 -16 -40 -96 -83 -263 -35 -132 -67 -256 -72 -276 -9
-33 -14 -37 -51 -43 -95 -14 -116 -18 -207 -42 -259 -70 -522 -210 -718 -382
-21 -18 -26 -19 -55 -7 -45 19 -85 9 -102 -26 -18 -35 -19 -47 -1 -80 13 -26
11 -30 -47 -100 -175 -214 -313 -502 -367 -769 -11 -54 -20 -110 -20 -124 0
-14 -2 -26 -5 -26 -5 0 -213 -56 -248 -66 -19 -6 -20 12 -2 151 29 226 142
542 271 758 148 247 387 494 636 657 176 117 435 230 628 275 41 10 81 23 89
28 38 31 30 103 -14 127 -27 14 -58 10 -184 -26 -490 -141 -900 -432 -1199
-850 -40 -56 -72 -104 -72 -107 0 -3 -17 -34 -38 -68 -143 -237 -254 -583
-278 -864 -3 -38 -7 -79 -9 -90 -2 -11 -4 -25 -4 -31 -1 -6 -29 -16 -63 -23
-78 -15 -97 -29 -105 -75 -8 -49 20 -79 91 -96 73 -17 77 -21 81 -66 4 -45 15
-147 20 -184 16 -125 80 -354 141 -504 314 -768 1046 -1298 1877 -1360 49 -3
59 -8 64 -29 24 -113 47 -147 98 -147 41 0 69 32 84 95 16 68 22 75 67 80 21
2 66 7 99 10 50 5 155 22 240 39 220 44 516 171 723 310 61 41 117 80 124 85
7 6 31 26 53 43 327 270 569 620 699 1009 47 143 90 336 101 454 11 120 14
138 22 145 4 4 34 12 66 19 68 15 97 41 97 87 0 42 -33 69 -106 85 -60 14 -70
24 -73 84 -2 52 -18 169 -37 270 -29 163 -104 375 -195 557 -103 207 -229 378
-409 559 -245 247 -524 421 -849 530 -133 44 -136 45 -228 62 -60 10 -64 10
-88 -13 -32 -30 -34 -79 -2 -107 12 -12 49 -26 81 -33 82 -17 253 -75 366
-124 407 -179 770 -520 984 -928 91 -172 173 -417 200 -594 3 -22 8 -50 11
-64 2 -14 7 -50 10 -81 l6 -57 -58 13 c-32 8 -92 22 -133 32 l-74 18 -24 120
c-39 201 -108 389 -209 566 -48 84 -65 103 -105 113 -20 4 -34 0 -54 -18 -38
-32 -36 -77 5 -138 47 -69 125 -239 160 -348 29 -91 65 -240 58 -246 -1 -2
-43 8 -92 21 -143 37 -558 145 -561 145 -1 0 22 53 53 118 60 126 116 246 168
357 18 39 65 137 103 218 62 131 69 152 60 177 -11 33 -24 45 -57 53 -23 6
-33 1 -291 -120 -52 -25 -126 -60 -165 -78 -38 -18 -142 -67 -229 -109 -88
-42 -164 -75 -170 -73 -8 3 -26 63 -56 187 -4 19 -16 62 -25 95 -9 33 -18 67
-20 75 -10 44 -66 260 -71 274 -6 15 -1 17 37 11 157 -23 436 -131 566 -220
57 -38 103 -33 128 15 15 30 13 63 -6 86 -22 26 -208 126 -317 169 -115 47
-254 86 -376 106 -77 13 -79 15 -91 66 -2 10 -13 52 -24 94 -74 287 -104 396
-112 411 -23 42 -84 50 -116 16z m115 -600 c29 -112 76 -297 106 -413 97 -373
155 -597 187 -722 l32 -123 -191 -190 c-105 -104 -192 -190 -194 -190 -2 0 -3
414 -3 920 0 506 2 920 6 920 3 0 28 -91 57 -202z m-384 -385 c-35 -137 -74
-285 -85 -329 l-21 -82 -76 38 c-43 20 -99 47 -127 60 -27 12 -115 54 -195 92
-80 38 -162 77 -182 85 -21 8 -38 19 -38 23 0 5 30 31 68 58 176 130 349 212
572 272 168 45 158 70 84 -217z m-624 -336 c451 -211 482 -227 476 -243 -10
-25 -38 -134 -51 -197 -4 -20 -11 -39 -15 -42 -6 -4 -505 486 -551 541 -11 14
-7 13 26 -3 22 -12 74 -37 115 -56z m2047 56 c-6 -11 -112 -231 -154 -323
-114 -246 -144 -302 -160 -295 -9 3 -62 17 -118 31 -56 14 -107 29 -114 33 -8
6 76 96 266 284 153 152 279 277 281 277 2 0 1 -3 -1 -7z m-2337 -73 c0 -5 30
-71 66 -147 160 -335 205 -435 199 -441 -3 -3 -45 -16 -93 -28 -150 -37 -524
-135 -539 -141 -18 -7 -11 50 22 171 56 205 136 370 268 549 40 54 52 65 63
56 8 -6 14 -15 14 -19z m927 -815 c102 -102 183 -188 181 -191 -6 -5 -1818 -7
-1824 -1 -2 2 79 24 179 50 319 82 754 195 1007 261 135 36 251 65 258 65 8 1
97 -82 199 -184z m2277 -206 c-2 -4 -16 -9 -31 -11 -16 -3 -176 -44 -358 -91
-181 -47 -384 -100 -450 -117 -66 -17 -226 -58 -355 -92 -129 -33 -246 -63
-259 -66 -19 -4 -53 25 -212 184 -179 178 -188 189 -162 194 40 7 1832 6 1827
-1z m-1971 -1037 c1 -502 -1 -912 -4 -912 -4 0 -16 39 -29 87 -29 115 -28 112
-40 158 -6 22 -12 47 -14 55 -2 9 -59 227 -126 485 -68 259 -134 516 -148 572
l-25 102 189 189 c104 104 190 186 192 182 1 -3 3 -417 5 -918z m-1930 867
c45 -12 87 -22 92 -23 54 -13 65 -20 66 -40 2 -63 43 -235 81 -346 41 -118
136 -309 203 -410 54 -81 142 -191 157 -198 4 -2 1 -20 -8 -40 -35 -85 33
-147 114 -103 15 8 31 0 91 -49 237 -194 551 -337 836 -381 44 -6 81 -13 83
-14 1 -1 18 -62 36 -134 l34 -133 -56 7 c-163 18 -338 57 -479 106 -78 27
-314 137 -368 171 -295 188 -494 380 -668 643 -149 226 -277 563 -311 820 -19
140 -19 158 -1 152 9 -4 53 -16 98 -28z m3972 -26 c-3 -32 -8 -69 -10 -83 -2
-14 -7 -45 -10 -70 -10 -66 -59 -254 -90 -340 -190 -530 -620 -981 -1140
-1195 -81 -34 -249 -91 -292 -100 -170 -35 -217 -42 -316 -50 -31 -3 -37 0
-33 13 3 10 14 55 26 102 33 135 39 150 61 150 60 0 282 58 414 108 88 33 238
110 329 169 72 46 200 145 211 163 4 6 18 5 40 -5 80 -33 142 25 110 102 -15
36 -15 37 13 67 117 126 248 347 320 541 50 133 78 243 98 371 7 49 -4 44 179
89 50 13 92 23 93 24 2 1 1 -25 -3 -56z m-3318 -143 c168 -43 308 -81 311 -84
2 -3 -3 -22 -13 -43 -61 -128 -126 -266 -186 -390 -37 -79 -70 -152 -74 -163
-9 -29 -19 -25 -53 18 -155 199 -282 483 -317 711 -6 39 -5 43 9 38 10 -4 155
-43 323 -87z m2888 48 c-28 -175 -124 -422 -225 -578 -52 -80 -120 -170 -129
-170 -4 0 -16 19 -26 43 -10 23 -56 120 -102 215 -46 96 -83 175 -83 178 0 2
-19 44 -43 93 l-44 89 221 57 c122 31 266 69 321 85 55 15 104 28 108 29 5 1
6 -18 2 -41z m-2162 -245 c-2 -9 -542 -553 -549 -553 -3 0 46 109 124 270 27
58 77 162 110 231 l59 126 129 -32 c71 -18 128 -37 127 -42z m1372 -284 c154
-155 276 -279 270 -277 -5 3 -39 19 -75 35 -71 33 -187 89 -407 194 l-142 68
30 113 c31 121 39 148 42 148 1 0 128 -127 282 -281z m-1240 -158 c3 -11 7
-28 9 -38 2 -11 22 -89 45 -173 114 -435 111 -420 93 -420 -35 0 -250 59 -327
90 -139 55 -292 142 -407 232 -36 28 -48 48 -29 48 5 0 91 40 192 88 101 49
227 108 279 132 52 24 99 48 105 52 16 14 33 9 40 -11z m996 -47 c60 -30 112
-54 114 -54 2 0 79 -36 171 -80 91 -44 170 -80 175 -80 24 0 1 -24 -73 -79
-150 -109 -342 -203 -510 -250 -70 -19 -93 -24 -165 -38 -37 -6 -41 -36 37
262 29 110 53 207 55 215 5 23 35 143 40 158 6 17 22 12 156 -54z"/>
</g>
</svg>
