<?xml version="1.0" standalone="no"?>
<!DOCTYPE svg PUBLIC "-//W3C//DTD SVG 20010904//EN"
 "http://www.w3.org/TR/2001/REC-SVG-20010904/DTD/svg10.dtd">
<svg version="1.0" xmlns="http://www.w3.org/2000/svg"
 width="700.000000pt" height="700.000000pt" viewBox="0 0 700.000000 700.000000"
 preserveAspectRatio="xMidYMid meet">
<metadata>
Created by potrace 1.14, written by Peter Selinger 2001-2017
</metadata>
<g transform="translate(0.000000,700.000000) scale(0.100000,-0.100000)"
fill="#000000" stroke="none">
<path d="M3452 6772 c-24 -114 -63 -304 -88 -422 -25 -118 -47 -224 -49 -235
-27 -133 -176 -846 -209 -1000 -8 -39 -17 -82 -19 -95 -8 -42 -67 -320 -87
-413 -11 -49 -20 -96 -20 -105 -1 -51 -15 -44 -221 90 -332 219 -983 644 -998
653 -13 7 17 -50 41 -80 5 -5 44 -64 87 -130 191 -295 224 -345 534 -818 65
-98 117 -179 117 -181 0 -5 -78 -24 -127 -32 -21 -3 -41 -8 -44 -10 -3 -2 -21
-6 -40 -9 -19 -3 -140 -28 -269 -56 -129 -27 -248 -52 -264 -55 -16 -3 -91
-18 -165 -34 -75 -16 -148 -31 -163 -34 -16 -3 -38 -8 -50 -11 -13 -2 -43 -9
-68 -14 -25 -5 -112 -23 -195 -40 -82 -17 -159 -33 -170 -36 -11 -2 -65 -13
-120 -25 -136 -29 -117 -25 -335 -70 -107 -22 -238 -49 -290 -61 -52 -11 -121
-25 -153 -31 -64 -11 -73 -23 -24 -32 17 -3 41 -8 52 -10 33 -6 220 -45 395
-83 91 -19 176 -37 190 -39 33 -6 688 -143 720 -150 14 -3 36 -8 50 -11 14 -2
88 -18 165 -34 77 -17 160 -34 185 -39 25 -5 122 -25 215 -45 94 -19 183 -38
199 -41 16 -3 32 -6 35 -8 3 -2 22 -7 41 -10 87 -14 230 -46 230 -51 0 -3 -33
-54 -72 -114 -40 -61 -121 -183 -179 -273 -59 -90 -163 -248 -231 -353 -162
-247 -292 -446 -303 -464 -11 -19 -14 -21 410 257 88 58 210 138 270 177 61
40 204 134 318 209 115 75 210 136 212 136 3 0 23 -85 41 -170 2 -14 9 -47 15
-75 6 -27 13 -61 15 -75 3 -14 10 -45 15 -70 6 -25 13 -56 15 -70 8 -41 12
-60 38 -185 15 -66 28 -131 31 -145 2 -14 18 -90 35 -170 34 -161 43 -205 65
-315 5 -22 9 -44 11 -50 1 -5 9 -46 19 -90 9 -44 19 -89 21 -100 2 -11 7 -33
10 -50 3 -16 10 -50 15 -75 6 -25 12 -52 14 -60 4 -22 79 -379 126 -607 47
-227 51 -237 62 -168 3 17 10 53 17 80 6 28 14 61 16 75 2 14 11 54 19 90 8
36 17 80 20 99 3 19 7 37 9 40 2 3 7 23 10 43 3 21 10 57 15 80 6 24 13 59 16
78 3 19 10 51 15 70 5 19 25 116 45 215 45 219 38 186 69 328 14 65 28 133 32
150 3 18 10 52 15 77 6 25 13 55 15 68 5 27 12 64 19 95 32 149 106 506 110
528 3 16 12 57 20 91 8 35 17 79 20 98 10 59 36 170 40 170 2 0 82 -51 177
-113 95 -62 236 -154 313 -205 77 -50 147 -96 155 -102 8 -5 98 -64 200 -131
102 -66 225 -147 274 -180 49 -33 90 -58 92 -56 3 3 -61 103 -281 437 -70 107
-180 275 -244 373 -64 97 -149 227 -189 289 -40 61 -71 113 -68 115 3 3 222
51 306 66 42 8 172 35 240 51 36 8 79 17 95 19 17 3 64 13 105 22 41 9 86 19
100 21 13 3 56 12 95 20 38 9 81 18 95 20 14 3 79 16 145 30 124 26 144 31
183 38 13 3 31 7 40 10 9 3 33 7 52 10 19 3 78 15 130 27 52 11 106 23 120 25
14 3 68 14 120 25 52 11 111 22 130 25 19 3 38 8 41 10 3 2 21 6 39 9 19 3 97
20 174 36 78 17 152 33 166 35 21 4 66 13 93 20 4 1 17 2 29 3 54 3 -12 23
-222 66 -124 26 -331 69 -460 95 -129 27 -289 60 -355 75 -66 14 -131 28 -145
30 -14 3 -36 7 -50 10 -24 5 -103 22 -146 31 -11 2 -85 17 -165 34 -79 17
-243 51 -364 76 -121 25 -229 48 -240 50 -32 7 -118 25 -145 30 -14 3 -32 7
-40 9 -8 2 -31 7 -50 11 -19 3 -39 7 -45 8 -57 13 -75 18 -75 22 0 5 255 395
269 411 6 7 11 14 11 17 0 3 31 51 69 108 103 155 407 620 435 667 7 10 5 11
-6 5 -15 -9 -358 -233 -686 -449 -397 -261 -514 -336 -518 -332 -5 5 -13 42
-109 507 -2 8 -11 49 -19 90 -9 41 -27 127 -41 190 -13 63 -36 171 -50 240
-27 130 -30 142 -40 200 -3 19 -8 41 -11 49 -2 7 -11 48 -20 90 -14 68 -191
917 -215 1031 -5 25 -12 59 -15 75 -3 17 -9 33 -13 37 -4 4 -26 -86 -49 -200z"/>
</g>
</svg>
